<?xml version="1.0" encoding="UTF-8"?>
<svg xmlns="http://www.w3.org/2000/svg" viewBox="0 0 598.3 76.7">
  <defs>
    <style>
      .cls-1 {
        fill: #fff;
      }

      .cls-1, .cls-2, .cls-3 {
        fill-rule: evenodd;
      }

      .cls-2 {
        fill: #b11c3b;
      }

      .cls-3 {
        fill: #142a4a;
      }
    </style>
  </defs>
  <g id="Layer_1" data-name="Layer 1">
    <path class="cls-1" d="M565.33,25.64h-24.81v9.79h22.09c3.13,0,5.27.58,6.42,1.72,1.16,1.16,1.73,3.34,1.73,6.55v3.94c0,3.24-.57,5.44-1.7,6.58-1.13,1.16-3.29,1.73-6.46,1.73h-20.47c-3.17,0-5.34-.58-6.49-1.74-1.14-1.17-1.72-3.35-1.72-6.57v-.96l5.44-1.26v5.64h26.1v-10.54h-22.03c-3.18,0-5.34-.58-6.47-1.74-1.12-1.16-1.69-3.34-1.69-6.56v-3.05c0-3.21.57-5.39,1.69-6.55,1.13-1.17,3.29-1.74,6.47-1.74h18.67c3.13,0,5.28.57,6.47,1.71,1.19,1.13,1.78,3.13,1.78,5.98v.74l-5.03,1.43v-5.1h0ZM448.62,25.57v9.79h27.94v4.62h-27.94v11.15h28.21v4.83h-34.06V20.88h33.79v4.69h-27.94ZM506.91,25.64v30.32h-5.85v-30.32h-16.04v-4.76h38v4.76h-16.11ZM405.61,55.96l-19.15-35.08h6.31l15.5,29.23,14.8-29.23h5.81l-18.35,35.08h-4.92ZM338.29,49.36h26.92v-22.23h-26.92v22.23h0ZM330.13,29.16c0-3.18.6-5.36,1.79-6.53,1.19-1.17,3.49-1.76,6.9-1.76h25.82c3.42,0,5.73.59,6.92,1.76,1.2,1.17,1.8,3.34,1.8,6.53v18.5c0,3.21-.6,5.39-1.8,6.55-1.19,1.17-3.5,1.74-6.92,1.74h-25.82c-3.41,0-5.71-.58-6.9-1.74-1.19-1.16-1.79-3.34-1.79-6.55v-18.5h0ZM274.27,55.96V20.88h30.06c2.76,0,4.77.54,6.02,1.63,1.24,1.08,1.86,2.81,1.86,5.18v4.27c0,1.69-.52,3.04-1.56,4.03-1.04,1.01-2.54,1.63-4.49,1.88,2.02.26,3.58.99,4.68,2.15,1.1,1.17,1.64,2.7,1.64,4.58v4.46c0,2.33-.85,4.06-2.56,5.19-1.71,1.13-4.29,1.7-7.78,1.7h-27.86ZM300.9,40.73h-18.62v8.9h18.62c1.55,0,2.59-.23,3.14-.69.54-.46.82-1.28.82-2.46v-2.64c0-1.18-.27-1.98-.82-2.44-.54-.45-1.59-.68-3.14-.68h0ZM300.9,26.59h-18.62v8.36h18.62c1.42,0,2.39-.19,2.93-.57.54-.37.82-1.03.82-1.96v-3.31c0-.92-.27-1.56-.82-1.95-.54-.39-1.52-.58-2.93-.58h0ZM217.13,55.96V20.88h29.98c2.8,0,4.83.53,6.07,1.61,1.26,1.07,1.88,2.79,1.88,5.18v8.25c0,2.37-.62,4.09-1.88,5.17-1.25,1.08-3.27,1.62-6.07,1.62h-4.58l16.21,13.26h-11.72l-14.14-13.26h-7.74v13.26h-8.02ZM243.49,26.93h-18.34v9.79h18.34c1.42,0,2.38-.2,2.9-.61.52-.42.78-1.14.78-2.19v-4.23c0-1.02-.26-1.73-.78-2.15-.52-.41-1.48-.61-2.9-.61h0ZM165.13,20.88v28.48h23.25v-28.48h8.16v26.8c0,3.2-.6,5.38-1.8,6.54-1.19,1.17-3.5,1.74-6.92,1.74h-22.15c-3.39,0-5.68-.58-6.88-1.74-1.21-1.16-1.81-3.34-1.81-6.54v-26.8h8.16ZM128.17,27.13v28.82h-8.16v-28.82h-16.11v-6.25h40.45v6.25h-16.18Z"/>
  </g>
  <g id="Layer_2" data-name="Layer 2">
    <polygon class="cls-2" points="62.33 21.02 61.22 22.93 57.92 28.65 54.61 34.38 51.3 40.11 48 45.84 44.69 51.57 41.38 45.84 38.07 40.11 34.77 34.38 31.46 28.65 28.15 22.93 27.05 21.02 22.64 21.02 42.48 55.39 44.69 59.2 44.69 59.2 46.89 55.39 66.74 21.02 62.33 21.02"/>
    <polygon class="cls-2" points="18.23 28.65 21.54 34.38 24.85 40.11 28.15 45.84 44.69 74.48 48.72 67.5 48.72 67.5 61.22 45.84 64.53 40.11 67.84 34.38 71.15 28.65 74.45 22.93 75.55 21.02 71.14 21.02 49.1 59.2 46.89 63.02 46.89 63.02 44.69 66.84 42.48 63.02 42.48 63.02 42.48 63.02 40.28 59.2 18.23 21.02 13.82 21.02 14.92 22.93 18.23 28.65"/>
    <polygon class="cls-1" points="42.48 55.39 22.64 21.02 18.23 21.02 44.69 66.84 71.14 21.02 66.74 21.02 46.89 55.39 44.69 59.2 42.48 55.39"/>
    <polygon class="cls-3" points="13.82 13.38 20.44 13.38 27.05 13.38 31.46 13.38 38.07 24.83 51.3 1.92 40.28 1.92 33.66 1.92 27.05 1.92 20.44 1.92 13.82 1.92 2.8 1.92 9.41 13.38 13.82 13.38"/>
    <polygon class="cls-2" points="40.28 28.65 49.1 13.38 51.3 9.56 53.51 5.74 57.92 5.74 62.33 5.74 73.35 5.74 84.37 5.74 86.58 1.92 84.37 1.92 77.76 1.92 71.14 1.92 64.53 1.92 57.92 1.92 51.3 1.92 48 7.65 44.69 13.38 41.38 19.11 38.07 24.83 38.55 25.66 40.28 28.65"/>
    <polygon class="cls-1" points="49.1 13.38 40.28 28.65 42.48 32.47 53.51 13.38 55.71 9.56 60.12 9.56 73.35 9.56 82.17 9.56 84.37 5.74 73.35 5.74 62.33 5.74 57.92 5.74 53.51 5.74 51.3 9.56 49.1 13.38"/>
    <polygon class="cls-2" points="53.51 13.38 42.48 32.47 44.69 36.29 51.3 24.84 54.61 19.11 57.92 13.38 64.53 13.38 71.15 13.38 77.76 13.38 79.96 13.38 82.17 9.56 73.35 9.56 60.12 9.56 55.71 9.56 53.51 13.38"/>
    <polygon class="cls-1" points="20.75 6.79 18.37 8.51 19.28 11.31 16.9 9.58 14.53 11.31 15.44 8.51 13.06 6.79 16 6.79 16.9 3.99 17.81 6.79 20.75 6.79"/>
    <polygon class="cls-1" points="30.9 6.79 28.51 8.51 29.43 11.31 27.05 9.58 24.67 11.31 25.59 8.51 23.2 6.79 26.15 6.79 27.05 3.99 27.95 6.79 30.9 6.79"/>
    <polygon class="cls-1" points="41.92 6.79 39.54 8.51 40.45 11.31 38.07 9.58 35.7 11.31 36.61 8.51 34.23 6.79 37.17 6.79 38.07 3.99 38.98 6.79 41.92 6.79"/>
  </g>
</svg>